<svg xmlns="http://www.w3.org/2000/svg" xmlns:xlink="http://www.w3.org/1999/xlink" version="1.1" x="0px" y="0px" viewBox="0 0 120 150" style="enable-background:new 0 0 120 120;" xml:space="preserve"><g><path d="M101.8,110c0.6,0,1-0.5,1-1s-0.5-1-1-1H87.1l-2,2.1H101.8z"/><path d="M18.2,107.9c-0.6,0-1,0.5-1,1s0.5,1,1,1h16.7l-2-2.1H18.2z"/><path d="M61,11c0-0.6-0.5-1-1-1s-1,0.5-1,1v11.8H61V11z"/><path d="M21.6,92.8L37.8,110h44.5l16.1-17.2C86.1,96.4,73,98.3,60,98.3S33.9,96.4,21.6,92.8z"/><path d="M73.9,75.2H60H46.1H32.1H19.2v14.7c26,8.4,55.6,8.4,81.6,0V75.2H87.9H73.9z"/><rect x="19.2" y="51.9" width="11.9" height="9.6"/><rect x="33.2" y="51.9" width="11.9" height="9.6"/><rect x="47.1" y="51.9" width="11.9" height="9.6"/><rect x="61" y="51.9" width="11.9" height="9.6"/><rect x="75" y="51.9" width="11.9" height="9.6"/><rect x="88.9" y="51.9" width="11.9" height="9.6"/><rect x="19.2" y="63.5" width="11.9" height="9.6"/><rect x="33.2" y="63.5" width="11.9" height="9.6"/><rect x="47.1" y="63.5" width="11.9" height="9.6"/><rect x="61" y="63.5" width="11.9" height="9.6"/><rect x="75" y="63.5" width="11.9" height="9.6"/><rect x="88.9" y="63.5" width="11.9" height="9.6"/><rect x="33.2" y="40.2" width="11.9" height="9.6"/><rect x="47.1" y="40.2" width="11.9" height="9.6"/><rect x="61" y="40.2" width="11.9" height="9.6"/><rect x="75" y="40.2" width="11.9" height="9.6"/><polygon points="72.9,38.1 72.9,31.5 72.9,24.9 47.1,24.9 47.1,31.5 47.1,38.1 60,38.1  "/><path d="M45,24.9h-4.9c-1,0-1.4,1.4-0.5,1.9l5.4,2.9V24.9z"/><path d="M75,24.9v4.8l5.4-2.9c0.9-0.5,0.6-1.9-0.5-1.9H75z"/></g><text x="0" y="135" fill="#000000" font-size="5px" font-weight="bold" font-family="'Helvetica Neue', Helvetica, Arial-Unicode, Arial, Sans-serif">Created by Symbolon</text><text x="0" y="140" fill="#000000" font-size="5px" font-weight="bold" font-family="'Helvetica Neue', Helvetica, Arial-Unicode, Arial, Sans-serif">from the Noun Project</text></svg>