<?xml version="1.0" encoding="utf-8"?>
<!-- Generator: Adobe Illustrator 20.0.0, SVG Export Plug-In . SVG Version: 6.00 Build 0)  -->
<svg version="1.1" id="Layer_1" xmlns="http://www.w3.org/2000/svg" xmlns:xlink="http://www.w3.org/1999/xlink" x="0px" y="0px"
	 viewBox="0 0 88.5 102.7" style="enable-background:new 0 0 88.5 102.7;" xml:space="preserve">
<style type="text/css">
	.st0{fill:#601B17;}
</style>
<g>
	<path class="st0" d="M86,101.2c0.6,0,1-0.5,1-1s-0.5-1-1-1H71.3l-2,2.1L86,101.2L86,101.2z"/>
	<path class="st0" d="M2.4,99.1c-0.6,0-1,0.5-1,1s0.5,1,1,1h16.7l-2-2.1L2.4,99.1L2.4,99.1z"/>
	<path class="st0" d="M45.2,2.2c0-0.6-0.5-1-1-1s-1,0.5-1,1V14h2V2.2z"/>
	<path class="st0" d="M5.8,84L22,101.2h44.5L82.6,84c-12.3,3.6-25.4,5.5-38.4,5.5S18.1,87.6,5.8,84z"/>
	<path class="st0" d="M58.1,66.4H44.2H30.3h-14H3.4v14.7c26,8.4,55.6,8.4,81.6,0V66.4H72.1H58.1z"/>
	<rect x="3.4" y="43.1" class="st0" width="11.9" height="9.6"/>
	<rect x="17.4" y="43.1" class="st0" width="11.9" height="9.6"/>
	<rect x="31.3" y="43.1" class="st0" width="11.9" height="9.6"/>
	<rect x="45.2" y="43.1" class="st0" width="11.9" height="9.6"/>
	<rect x="59.2" y="43.1" class="st0" width="11.9" height="9.6"/>
	<rect x="73.1" y="43.1" class="st0" width="11.9" height="9.6"/>
	<rect x="3.4" y="54.7" class="st0" width="11.9" height="9.6"/>
	<rect x="17.4" y="54.7" class="st0" width="11.9" height="9.6"/>
	<rect x="31.3" y="54.7" class="st0" width="11.9" height="9.6"/>
	<rect x="45.2" y="54.7" class="st0" width="11.9" height="9.6"/>
	<rect x="59.2" y="54.7" class="st0" width="11.9" height="9.6"/>
	<rect x="73.1" y="54.7" class="st0" width="11.9" height="9.6"/>
	<rect x="17.4" y="31.4" class="st0" width="11.9" height="9.6"/>
	<rect x="31.3" y="31.4" class="st0" width="11.9" height="9.6"/>
	<rect x="45.2" y="31.4" class="st0" width="11.9" height="9.6"/>
	<rect x="59.2" y="31.4" class="st0" width="11.9" height="9.6"/>
	<polygon class="st0" points="57.1,29.3 57.1,22.7 57.1,16.1 31.3,16.1 31.3,22.7 31.3,29.3 44.2,29.3 	"/>
	<path class="st0" d="M29.2,16.1h-4.9c-1,0-1.4,1.4-0.5,1.9l5.4,2.9V16.1z"/>
	<path class="st0" d="M59.2,16.1v4.8l5.4-2.9c0.9-0.5,0.6-1.9-0.5-1.9C64.1,16.1,59.2,16.1,59.2,16.1z"/>
</g>
</svg>
